<svg id="Calque_1" data-name="Calque 1" xmlns="http://www.w3.org/2000/svg" xmlns:xlink="http://www.w3.org/1999/xlink" viewBox="0 0 198.41 110.49"><defs><style>.cls-1 {fill: none;}.cls-2 {clip-path: url(#clip-path);}.cls-3 {clip-path: url(#clip-path-2);}.cls-4 {fill: #fff;}
</style><clipPath id="clip-path"><path class="cls-1" d="M-569.79-120.3l-15.74,53.06,3.37,43.51S-198.37,185.1-197,185.19s25.62-2,25.62-2l16.42-13.94S-268.08,72.13-269,71.43-569.79-120.3-569.79-120.3Z"/></clipPath><clipPath id="clip-path-2"><path class="cls-1" d="M-558.6-73.86l1.34,27.05,2,23L-582.1,2.07s422.72,235.86,423,233.81,3.29-85.09,3.29-85.09L-548.6-77.59Z"/></clipPath></defs><title>24-15</title><g class="cls-2"><g class="cls-3"><image width="198" height="1160" transform="matrix(-0.34, 0.54, 0.57, 0.36, -648.97, -204.7)" /></g></g><path class="cls-1" d="M40.8,47.5c-10.82,1.34-17,7.64-17,15.5,0,8.08,4.94,12.49,17,11,10.86-1.34,17-7.16,17-15.19C57.72,51,51.67,46.17,40.8,47.5Zm-.08,16.38c-2.19.27-3.48-.61-3.48-2.58a3.56,3.56,0,0,1,3.48-3.74c2.1-.26,3.52.69,3.52,2.88C44.24,62.41,42.87,63.61,40.72,63.88Z"/><path class="cls-1" d="M81.25,42.73c-4.72.59-7.73,2.93-9.31,6.09L71,44.34,60,45.7V79.32l13.05-1.61V65.26c1.25,2.46,3.65,3.84,8.12,3.29A14,14,0,0,0,93.32,54.3C93.32,45.8,88.16,41.88,81.25,42.73ZM76.32,59.49c-2.28.28-3.48-.6-3.48-2.58,0-2.15,1.2-3.45,3.48-3.73s3.52.68,3.52,2.87C79.84,58,78.55,59.21,76.32,59.49Z"/><path class="cls-1" d="M129.82,49.85c0-7.3-4.47-12.77-16.75-11.25S95.21,46.47,95.21,54.76c0,6.82,3.66,12.08,16.93,10.45,10.77-1.33,16-5.07,17.55-11.48l-14,1.73c-.38.6-1,1-2.83,1.25-2.62.32-4-.37-4.42-2l21.42-2.64Zm-21.21,0c.56-1.4,1.8-2.28,4-2.55s3.48.09,4,1.58Z"/><path class="cls-1" d="M153.78,33.58c-5.07.63-7.77,3.49-9,7.33l-1.41-5.49L132,36.82V61.94l13.35-1.64V49.73c0-3,.64-4,2.61-4.27s2.58.63,2.58,3.33V59.66L163.79,58V43C163.78,36.09,160.35,32.77,153.78,33.58Z"/><path class="cls-4" d="M112.6,47.33c-2.19.27-3.43,1.15-4,2.55l7.94-1C116.08,47.42,114.88,47.05,112.6,47.33Z"/><path class="cls-4" d="M76.32,53.18c-2.28.28-3.48,1.58-3.48,3.73,0,2,1.2,2.86,3.48,2.58s3.52-1.47,3.52-3.44C79.84,53.86,78.51,52.91,76.32,53.18Z"/><path class="cls-4" d="M40.72,57.56a3.56,3.56,0,0,0-3.48,3.74c0,2,1.29,2.85,3.48,2.58s3.52-1.47,3.52-3.44C44.24,58.25,42.82,57.3,40.72,57.56Z"/><path class="cls-4" d="M96.31,11.84c-47,0-85.14,19.64-85.13,43.83S49.32,99.44,96.35,99.42s85.15-19.64,85.14-43.83S143.34,11.82,96.31,11.84ZM40.73,74c-12,1.48-17-2.93-17-11,0-7.86,6.22-14.16,17-15.5S57.72,51,57.73,58.82C57.73,66.85,51.59,72.67,40.73,74Zm40.45-5.46c-4.47.55-6.87-.83-8.12-3.29V77.71L60,79.32V45.7l11-1.36.91,4.48c1.58-3.16,4.59-5.5,9.31-6.09,6.91-.85,12.07,3.07,12.07,11.57A14,14,0,0,1,81.18,68.55Zm31.64-11.84c1.85-.23,2.45-.65,2.83-1.25l14-1.73c-1.54,6.41-6.78,10.15-17.55,11.48-13.27,1.63-16.92-3.63-16.93-10.45,0-8.29,5.54-14.64,17.86-16.16s16.75,3.95,16.75,11.25v2.23L108.4,54.72C108.83,56.34,110.2,57,112.82,56.71Zm37.75,2.95V48.79c0-2.7-.51-3.58-2.58-3.33s-2.61,1.23-2.61,4.27V60.3L132,61.94V36.82l11.38-1.4,1.41,5.49c1.21-3.84,3.91-6.7,9-7.33,6.57-.81,10,2.51,10,9.42V58Z"/></svg>